<svg xmlns="http://www.w3.org/2000/svg" xmlns:xlink="http://www.w3.org/1999/xlink" xmlns:lucid="lucid" width="1256" height="473"><g transform="translate(-298 -1957)" lucid:page-tab-id="0_0"><path d="M0 0h1870.4v2582.4H0z" fill="#fff"/><path d="M1220.14 2020h282.98v280h-282.98zM797.02 2020h346.1v280h-346.1z" stroke="#000" stroke-width="2" fill="#fff"/><path d="M425.7 2323.6h180v67.17h-180z" fill="none"/><use xlink:href="#a" transform="matrix(1,0,0,1,425.70820263217445,2323.590356037819) translate(36.50444444444448 44.05555555555554)"/><path d="M393.63 2058.4h53.5v9.96h-53.5v-9.96zM393.63 2077.48h53.5v9.84h-53.5v-9.84zM393.63 2096.2h53.5v9.84h-53.5v-9.84z" stroke="#000" stroke-opacity="0" fill="#2a3282"/><path d="M454.42 2020h-75.35c-8.78 0-15.95 7.2-15.95 15.96v88.08c0 8.76 7.17 15.96 15.95 15.96h83.55c8.9 0 16.07-7.2 16.07-15.96v-80.16L454.4 2020zm8.2 110.4h-83.55c-3.35 0-6.12-2.64-6.12-6.36v-88.08c0-3.36 2.77-6.12 6.12-6.12h70.27v19.8h19.4v74.64c0 3.48-2.65 6.12-6.12 6.12z" stroke="#000" stroke-opacity="0" fill="#2a3282"/><use xlink:href="#b" transform="matrix(1,0,0,1,333.1248692988411,2149) translate(66.868 15)"/><path d="M823.12 2139.35c0 2.34 1.92 4.5 4.32 4.5h111.12c2.4 0 4.56-1.9 4.56-4.5v-79.1h-120v79.1z" stroke="#000" stroke-opacity="0" fill="#a0a1a2"/><path d="M938.56 2041.86H827.44c-2.4 0-4.32 2.14-4.32 4.54v13.62h120v-13.62c0-2.4-1.92-4.54-4.56-4.54" stroke="#000" stroke-opacity="0" fill="#7a7a7a"/><path d="M832 2068.38h48.96v31.05H832v-31.05zM832 2103.73h48.96v31.05H832v-31.05z" stroke="#000" stroke-opacity="0" fill="#0072c6"/><path d="M885.28 2068.38H934v31.05h-48.72v-31.05z" stroke="#000" stroke-opacity="0" fill="#fff"/><path d="M885.28 2103.73H934v31.05h-48.72v-31.05z" stroke="#000" stroke-opacity="0" fill="#0072c6"/><path d="M827.94 2041.86c-2.62 0-4.82 2.14-4.82 4.78v92.2c0 2.64 2.2 4.78 4.82 4.78h5.23l94.6-101.76h-99.83z" stroke="#000" stroke-opacity="0" fill="#fff" fill-opacity=".2"/><use xlink:href="#c" transform="matrix(1,0,0,1,793.1248692988411,2152.860465116279) translate(24.61500000000001 15)"/><use xlink:href="#d" transform="matrix(1,0,0,1,793.1248692988411,2152.860465116279) translate(74.709 15)"/><path d="M938.56 2216.52c-2.16-5.2-6.72-9.52-12.6-12.22-2.64-9-10.2-18.03-21.36-18.03h-1.08c-4.68-3.34-9.24-4.97-13.92-4.97-2.76 0-5.64.64-8.4 1.85-2.16-1.14-4.56-1.7-7.2-1.7-5.76 0-11.16 2.62-14.52 5.74-1.2-.3-2.16-.36-3.36-.36-8.52 0-17.04 7.03-19.32 15.62-7.32 2.7-12.72 7.52-15.24 13.84-2.52 6.18-1.92 13 1.44 18.82s9.24 9.23 15.84 9.23c2.4 0 4.8-.5 7.08-1.5 3.96 3.63 9 5.76 13.8 5.76 1.68 0 3.36-.2 4.92-.7 3.84 3.2 9.84 4.4 14.76 4.4 5.64 0 10.68-1.5 13.92-4.2 2.16 1 4.56 1.57 6.96 1.57 6.24 0 12.6-3.26 16.08-7.88 1.92.84 3.96 1.2 6 1.2 6.72 0 12.96-4.33 15.84-11.15 2.28-5.18 2.4-10.5.36-15.33z" stroke="#000" stroke-opacity="0" stroke-width="1.31" fill="#3176bc"/><path d="M853.85 2222.7h-6.08c-.73-3.32-3.72-5.8-7.35-5.8-4.1 0-7.45 3.38-7.45 7.46 0 4.15 3.36 7.47 7.45 7.47 3.54 0 6.53-2.43 7.35-5.75h6.08c.73 0 1.37.64 1.37 1.4v20.56c1.18.25 2.17.44 3.35.5v-21.05c0-2.63-2.17-4.8-4.72-4.8zm-13.43 6.06c-2.36 0-4.36-1.97-4.36-4.4 0-2.42 2-4.34 4.36-4.34 2.45 0 4.45 1.92 4.45 4.34 0 2.43-2 4.4-4.45 4.4zm37.5-4.53v-7.02c0-2.6-2.1-4.7-4.73-4.7h-10.63c-.82 0-1.45-.65-1.45-1.4v-25.28c-.55.44-1.1.9-1.64 1.4-.63-.2-1.1-.25-1.72-.32v24.2c0 2.6 2.18 4.7 4.8 4.7h10.63c.72 0 1.35.65 1.35 1.4v7.03c-3.26.77-5.8 3.7-5.8 7.28 0 4.1 3.35 7.47 7.53 7.47 4.08 0 7.44-3.38 7.44-7.46 0-3.57-2.45-6.5-5.8-7.27zm-1.64 11.62c-2.45 0-4.45-1.92-4.45-4.34s2-4.4 4.45-4.4c2.36 0 4.36 1.98 4.36 4.4 0 2.43-2 4.35-4.36 4.35zm47.48-18.64c0-4.07-3.36-7.45-7.44-7.45-4.18 0-7.54 3.38-7.54 7.46 0 3.6 2.45 6.52 5.8 7.3v1.4c0 .76-.62 1.4-1.44 1.4H899.7v-24.06c0-2.62-2.1-4.8-4.72-4.8h-7.35c-.73-3.3-3.73-5.8-7.27-5.8-4.17 0-7.53 3.32-7.53 7.47 0 4.16 3.36 7.48 7.53 7.48 3.54 0 6.54-2.43 7.27-5.74h7.35c.73 0 1.36.63 1.36 1.4v45.94c1.1.26 2.18.4 3.36.45v-19.02h13.44c2.63 0 4.8-2.1 4.8-4.7v-1.35c3.28-.76 5.82-3.76 5.82-7.34zm-43.4-12.68c-2.45 0-4.35-1.98-4.35-4.4 0-2.43 1.9-4.35 4.36-4.35 2.36 0 4.36 1.92 4.36 4.34 0 2.44-2 4.42-4.36 4.42zm35.96 17.1c-2.45 0-4.45-1.98-4.45-4.4 0-2.43 2-4.35 4.45-4.35 2.36 0 4.35 1.92 4.35 4.34 0 2.44-2 4.42-4.35 4.42z" stroke="#000" stroke-opacity="0" stroke-width="1.31" fill="#fff"/><use xlink:href="#e" transform="matrix(1,0,0,1,790,2261.3005474360652) translate(43.758 13.5)"/><use xlink:href="#f" transform="matrix(1,0,0,1,790,2261.3005474360652) translate(44.514 31.5)"/><path d="M1073.36 2119.1h-60.12l-30.12 51.94 30.12 51.93h59.88l30-51.93-29.76-51.93zm-32.88 27.22h13.92v14.02h-13.92v-14.02zm0 17.45h13.92v13.92h-13.92v-13.93zm0 17.34h13.92v14.04h-13.92v-14.03zm-17.4-34.78H1037v14.02h-13.92v-14.02zm0 17.45H1037v13.92h-13.92v-13.93zm0 17.34H1037v14.04h-13.92v-14.03zm48.36 21.62h-56.64v-56.7h3.84v52.85h52.8v3.85zm.36-7.58h-13.92v-14.03h13.92v14.04zm0-17.45h-13.92v-13.93h13.92v13.92zm0-17.46h-13.92v-13.92h13.92v13.92z" stroke="#000" stroke-opacity="0" fill="#0078d7"/><use xlink:href="#g" transform="matrix(1,0,0,1,953.1248692988411,2231.9702325658823) translate(22.329000000000008 15)"/><use xlink:href="#h" transform="matrix(1,0,0,1,953.1248692988411,2231.9702325658823) translate(108.22500000000001 15)"/><path d="M667.4 2208.57c-10.93 8.4-22.7 12.36-36.37 12.36-18.12 0-36-8.16-47.76-23.52-20.16-26.27-15.12-63.95 11.16-84.1 10.92-8.4 23.76-12.37 36.48-12.37 18 0 35.9 8.16 47.65 23.52 20.16 26.28 15.12 63.96-11.16 84.12" stroke="#000" stroke-opacity="0" stroke-width="3" fill="#59b4d9"/><path d="M656.36 2171.44c4.36 5.7 12.4 6.73 18.07 2.38.33-.2.54-.4.76-.72 5.87 4.14 9.8 6.83 12.07 8.28.66-1.65 1.2-3.3 1.63-5.07-3.7-2.8-6.74-5.17-10.33-8.07 1.52-4.04 1.08-8.7-1.75-12.43-3.9-5.18-11-6.53-16.65-3.32-7.07-6.42-13.06-12-19.9-18.74 22.08-11.92 37.64-10.15 37.64-10.15-2.6-3.33-5.54-6.23-8.58-8.82-9.36-1.45-23.73-1.35-40.16 7.46-6.1-6.42-11.1-11.9-16.76-18.54-2.94.93-5.34 1.86-7.95 3.2 4.14 6.95 9.8 13.8 16.22 20.62-6.3 4.46-11.32 8.8-16.65 14.5-.77.73-1.42 1.45-2.07 2.18-3.38-.73-6.53-.52-9.9.72-5.34-11.8-4.9-21.23-4.14-26-2.28 2.4-4.45 5.08-6.4 7.77-1.43 5.8-1.86 14.18 2.38 24.23-5.1 6.63-5.1 15.43 0 21.96.44.6.87 1.13 1.3 1.54-2.06 7.25-3.15 13.57-3.47 21.03.55.83.55 1.45 1.1 2.18 2.93 3.72 6.52 6.83 10 9.63-.43-6.63 0-16.37 4.14-27.35 2.94.3 5.55-.1 8.38-1.34 1.53 1.33 3.05 2.78 4.8 4.13 5.76 4.56 10.98 7.87 17.5 11.2-.3 3.1.45 5.9 2.3 8.38 4.03 5.3 11.53 6.22 16.76 2.18 1.1-.83 1.96-1.66 2.72-2.9 9.25 2.07 17.4 2.5 23.5 2.5.88 0 5.23-5.92 7.73-9.54-3.7.83-14.7 2.28-29.6-1.97-.33-1.86-.98-3.3-2.18-4.76-3.7-4.97-10.66-6-15.78-2.7-6.1-3.3-10.88-6.5-16.32-10.76l-3.16-2.7c3.48-5.7 3.8-12.22.76-18.12.65-.72 1.3-1.35 2.06-2.07 5.55-5.18 10.78-9.32 15.67-12.64l-.66-.6.65.6c7.4 6.95 15.34 13.48 22.85 19.38-1.96 4.14-1.63 9.32 1.4 13.26z" stroke="#000" stroke-opacity="0" stroke-width="3" fill="#fff"/><use xlink:href="#i" transform="matrix(1,0,0,1,540.906586189193,2229.93023255814) translate(22.427999999999997 15)"/><use xlink:href="#f" transform="matrix(1,0,0,1,540.906586189193,2229.93023255814) translate(66.6 15)"/><path d="M1460.6 2137.64c-10.9 8.4-22.67 12.36-36.35 12.36-18.12 0-36-8.16-47.76-23.52-20.17-26.28-15.13-63.96 11.15-84.12 10.92-8.4 23.76-12.36 36.48-12.36 18 0 35.88 8.16 47.64 23.52 20.16 26.28 15.12 63.96-11.16 84.12" stroke="#000" stroke-opacity="0" stroke-width="3" fill="#59b4d9"/><path d="M1449.6 2100.5c4.34 5.7 12.4 6.74 18.05 2.4.33-.22.55-.42.77-.73 5.87 4.14 9.8 6.83 12.08 8.28.65-1.65 1.2-3.3 1.63-5.07-3.7-2.8-6.75-5.18-10.34-8.08 1.5-4.04 1.08-8.7-1.75-12.43-3.92-5.18-11-6.53-16.65-3.32-7.08-6.42-13.06-12-19.92-18.74 22.1-11.9 37.66-10.14 37.66-10.14-2.62-3.32-5.55-6.22-8.6-8.8-9.36-1.46-23.73-1.36-40.16 7.45-6.1-6.4-11.1-11.9-16.76-18.53-2.94.93-5.33 1.86-7.94 3.2 4.13 6.95 9.8 13.78 16.2 20.62-6.3 4.45-11.3 8.8-16.64 14.5-.76.72-1.4 1.44-2.07 2.17-3.37-.73-6.53-.52-9.9.72-5.33-11.82-4.9-21.24-4.14-26-2.28 2.38-4.46 5.07-6.42 7.76-1.4 5.8-1.84 14.2 2.4 24.24-5.1 6.63-5.1 15.43 0 21.96.44.62.88 1.14 1.3 1.55-2.05 7.26-3.14 13.58-3.47 21.04.54.83.54 1.45 1.1 2.18 2.93 3.72 6.52 6.83 10 9.63-.43-6.63 0-16.37 4.14-27.35 2.94.3 5.55-.1 8.38-1.34 1.52 1.34 3.04 2.8 4.8 4.14 5.75 4.56 10.98 7.87 17.5 11.2-.32 3.1.44 5.9 2.3 8.38 4.02 5.28 11.53 6.2 16.75 2.17 1.1-.83 1.96-1.66 2.72-2.9 9.25 2.07 17.42 2.5 23.5 2.5.88 0 5.23-5.92 7.74-9.54-3.7.84-14.7 2.3-29.6-1.96-.33-1.86-.98-3.3-2.18-4.76-3.7-4.98-10.67-6-15.78-2.7-6.1-3.3-10.88-6.52-16.33-10.77l-3.15-2.68c3.48-5.7 3.8-12.23.76-18.13.65-.73 1.3-1.36 2.07-2.08 5.55-5.18 10.77-9.32 15.67-12.64-.22-.2-.44-.4-.65-.62l.65.62c7.4 6.94 15.34 13.47 22.85 19.37-1.96 4.14-1.63 9.32 1.42 13.26z" stroke="#000" stroke-opacity="0" stroke-width="3" fill="#fff"/><use xlink:href="#i" transform="matrix(1,0,0,1,1334.130771744067,2159) translate(22.427999999999997 15)"/><use xlink:href="#f" transform="matrix(1,0,0,1,1334.130771744067,2159) translate(66.6 15)"/><path d="M517.85 2023.98h80V2300h-80z" fill="none"/><path d="M517.85 2300c5.52 0 10-4.48 10-10v-118c0-5.53 4.48-10 10-10-5.52 0-10-4.5-10-10v-118.02c0-5.52-4.48-10-10-10" stroke="#000" stroke-width="2" fill="none"/><path d="M723.12 2020h80v280h-80z" fill="none"/><path d="M723.12 2300c5.53 0 10-4.48 10-10v-120c0-5.52 4.48-10 10-10-5.52 0-10-4.48-10-10v-120c0-5.52-4.47-10-10-10" stroke="#000" stroke-width="2" fill="none"/><path d="M1361.6 2269.74h-115.93c-1.34 0-2.55-1.18-2.55-2.53v-56.4h5.2v53.8h110.6v-74.16h-70.3v-5.16h72.97c1.32 0 2.53 1.2 2.53 2.54v79.4c0 1.34-1.2 2.52-2.54 2.52z" stroke="#fff" stroke-opacity="0" fill="#3b48cc"/><path d="M1303.6 2238.48c-.57 0-1.12-.2-1.58-.58l-31.12-25.84 3.33-3.95 29.36 24.48 56.3-46.73 3.33 3.95-57.9 48.1c-.54.37-1.1.58-1.74.58z" stroke="#fff" stroke-opacity="0" fill="#3b48cc"/><path d="M1312.12 2229.45l3.32-3.92 47.76 39.68-3.32 3.94-47.76-39.7z" stroke="#fff" stroke-opacity="0" stroke-width=".64" fill="#3b48cc"/><path d="M1244.07 2265.2l47.75-39.7 3.32 3.94-47.75 39.7-3.33-3.93z" stroke="#fff" stroke-opacity="0" stroke-width=".77" fill="#3b48cc"/><path d="M1261.62 2203.04c2.55-.04 4.68-.44 7.08-1.36v4.44c-2.55 1.23-4.9 1.76-7.74 1.72-3.3.08-6.15-.62-9.02-2.3-2.63-1.57-4.45-3.64-5.7-6.4-1.42-3.35-2.04-6.47-1.96-10.08-.08-4.8.85-8.93 2.98-13.2 1.85-3.82 4.33-6.6 7.9-8.88 3.36-2.15 6.8-3.16 10.83-3.12 3.32-.1 6.23.57 9.17 2.16 2.63 1.45 4.5 3.38 5.84 6.1 1.45 3.13 2.06 6.03 2 9.46.03 3.08-.44 5.72-1.56 8.58-.85 2.33-2.1 4.13-4 5.76-1.58 1.36-3.36 2.02-5.5 2.02-1.1.05-2.1-.22-3.12-.7-.93-.5-1.63-1.14-2.17-2.02-.85.92-1.7 1.53-2.82 2.06-.97.53-1.9.8-3 .84-1.96.1-3.66-.8-4.75-2.38-1.27-2.2-1.78-4.35-1.62-6.86-.04-2.72.38-5.1 1.3-7.7.7-2.15 1.75-3.86 3.38-5.53 1.16-1.24 2.6-1.85 4.26-1.94 1.93.06 3.56.98 4.6 2.56l.55-1.8h4.72l-2.13 15.7c-.04.48-.04.92 0 1.4-.04.53.08 1.02.43 1.46.27.35.66.52 1.08.52 1.12-.13 2.05-.74 2.6-1.75.92-1.42 1.54-2.74 1.9-4.4.5-2 .73-3.7.7-5.77.26-3.6-.75-6.82-3.07-9.68-2.48-2.42-5.5-3.52-8.98-3.3-3.1 0-5.73.88-8.2 2.73-2.6 1.98-4.38 4.27-5.62 7.3-1.43 3.43-2.05 6.55-1.98 10.3-.23 3.9.78 7.3 3.1 10.46 2.2 2.5 5.15 3.78 8.52 3.6zm1.55-9.58c1.04-.05 1.93-.5 2.6-1.28v-.88c-.05-.66-.05-1.2 0-1.85l1.38-10.24c-.7-.52-1.43-.83-2.28-.87-1.24 0-2.25.92-3.1 2.8-.96 2.4-1.35 4.6-1.24 7.18.12 3.44.93 5.16 2.64 5.16z" stroke="#fff" stroke-opacity="0" fill="#3b48cc"/><path d="M1244.48 2186.64h116.58v80.03h-116.58v-80.03z" stroke="#fff" stroke-opacity="0" stroke-width=".87" fill="#fff" fill-opacity="0"/><path d="M1264.77 2166.8c9.27 0 16.8 7.4 16.8 16.5 0 9.08-7.53 16.47-16.8 16.47s-16.8-7.4-16.8-16.48c0-9.1 7.53-16.5 16.8-16.5z" stroke="#fff" stroke-opacity="0" stroke-width=".38" fill="#fff" fill-opacity="0"/><use xlink:href="#j" transform="matrix(1,0,0,1,1213.124869298841,2278.740629755852) translate(64.225 15)"/><path d="M430.16 2278.5l-37.33-37.37-20.55 20.57-3.58-3.6 22.3-22.36c1.05-1 2.6-1 3.65 0l39.1 39.18z" stroke="#fff" stroke-opacity="0" fill="#2a3282"/><path d="M470.24 2257.34l-28.9-28.9-28.24 28.34-3.6-3.57 30.1-30.15c.98-.98 2.6-.98 3.55 0l30.7 30.72zM411.53 2231.55c-6.56.02-11.88-5.3-11.9-11.87-.03-6.57 5.3-11.9 11.85-11.92 6.56-.03 11.88 5.3 11.9 11.87v.05c-.02 6.54-5.32 11.84-11.85 11.87zm0-18.68h-.03c-3.75 0-6.8 3.05-6.8 6.8 0 3.76 3.05 6.8 6.8 6.8 3.76 0 6.8-3.04 6.8-6.8 0-3.75-3.02-6.8-6.77-6.8z" stroke="#fff" stroke-opacity="0" fill="#2a3282"/><path d="M471.18 2287.18H370.5c-1.37 0-2.53-1.16-2.53-2.54v-100.8c0-1.37 1.16-2.54 2.53-2.54h100.68c1.38 0 2.54 1.17 2.54 2.54v100.8c0 1.38-1.16 2.54-2.54 2.54zm-98.14-5.08h95.6v-95.72h-95.6z" stroke="#fff" stroke-opacity="0" fill="#2a3282"/><use xlink:href="#k" transform="matrix(1,0,0,1,337.9665038694067,2296.180712075638) translate(53.759 15)"/><path d="M1169.23 2020h80v280h-80z" fill="none"/><path d="M1169.23 2300c5.53 0 10-4.48 10-10v-120c0-5.52 4.48-10 10-10-5.52 0-10-4.48-10-10v-120c0-5.52-4.47-10-10-10" stroke="#000" stroke-width="2" fill="none"/><path d="M860 2323.6h249.8v67.17H860z" fill="none"/><g><use xlink:href="#l" transform="matrix(1,0,0,1,860,2323.590356037819) translate(55.14 44)"/></g><path d="M1241.63 2327.18h240v60h-240z" fill="none"/><g><use xlink:href="#m" transform="matrix(1,0,0,1,1241.6327331708496,2327.180712075638) translate(45.8 40)"/></g><g class="lucid-layer" lucid:layer-id="wbZS85UZNmPE" display="block"><path d="M1220.14 2020h282.98v280h-282.98zM797.02 2020h346.1v280h-346.1z" stroke="#000" stroke-width="2" fill="#fff"/><path d="M425.7 2323.6h180v67.17h-180z" fill="none"/><use xlink:href="#a" transform="matrix(1,0,0,1,425.70820263217445,2323.590356037819) translate(36.50444444444448 44.05555555555554)"/><path d="M393.63 2058.4h53.5v9.96h-53.5v-9.96zM393.63 2077.48h53.5v9.84h-53.5v-9.84zM393.63 2096.2h53.5v9.84h-53.5v-9.84z" stroke="#000" stroke-opacity="0" fill="#2a3282"/><path d="M454.42 2020h-75.35c-8.78 0-15.95 7.2-15.95 15.96v88.08c0 8.76 7.17 15.96 15.95 15.96h83.55c8.9 0 16.07-7.2 16.07-15.96v-80.16L454.4 2020zm8.2 110.4h-83.55c-3.35 0-6.12-2.64-6.12-6.36v-88.08c0-3.36 2.77-6.12 6.12-6.12h70.27v19.8h19.4v74.64c0 3.48-2.65 6.12-6.12 6.12z" stroke="#000" stroke-opacity="0" fill="#2a3282"/><use xlink:href="#b" transform="matrix(1,0,0,1,333.1248692988411,2149) translate(66.868 15)"/><path d="M823.12 2139.35c0 2.34 1.92 4.5 4.32 4.5h111.12c2.4 0 4.56-1.9 4.56-4.5v-79.1h-120v79.1z" stroke="#000" stroke-opacity="0" fill="#a0a1a2"/><path d="M938.56 2041.86H827.44c-2.4 0-4.32 2.14-4.32 4.54v13.62h120v-13.62c0-2.4-1.92-4.54-4.56-4.54" stroke="#000" stroke-opacity="0" fill="#7a7a7a"/><path d="M832 2068.38h48.96v31.05H832v-31.05zM832 2103.73h48.96v31.05H832v-31.05z" stroke="#000" stroke-opacity="0" fill="#0072c6"/><path d="M885.28 2068.38H934v31.05h-48.72v-31.05z" stroke="#000" stroke-opacity="0" fill="#fff"/><path d="M885.28 2103.73H934v31.05h-48.72v-31.05z" stroke="#000" stroke-opacity="0" fill="#0072c6"/><path d="M827.94 2041.86c-2.62 0-4.82 2.14-4.82 4.78v92.2c0 2.64 2.2 4.78 4.82 4.78h5.23l94.6-101.76h-99.83z" stroke="#000" stroke-opacity="0" fill="#fff" fill-opacity=".2"/><use xlink:href="#c" transform="matrix(1,0,0,1,793.1248692988411,2152.860465116279) translate(24.61500000000001 15)"/><use xlink:href="#d" transform="matrix(1,0,0,1,793.1248692988411,2152.860465116279) translate(74.709 15)"/><path d="M938.56 2216.52c-2.16-5.2-6.72-9.52-12.6-12.22-2.64-9-10.2-18.03-21.36-18.03h-1.08c-4.68-3.34-9.24-4.97-13.92-4.97-2.76 0-5.64.64-8.4 1.85-2.16-1.14-4.56-1.7-7.2-1.7-5.76 0-11.16 2.62-14.52 5.74-1.2-.3-2.16-.36-3.36-.36-8.52 0-17.04 7.03-19.32 15.62-7.32 2.7-12.72 7.52-15.24 13.84-2.52 6.18-1.92 13 1.44 18.82s9.24 9.23 15.84 9.23c2.4 0 4.8-.5 7.08-1.5 3.96 3.63 9 5.76 13.8 5.76 1.68 0 3.36-.2 4.92-.7 3.84 3.2 9.84 4.4 14.76 4.4 5.64 0 10.68-1.5 13.92-4.2 2.16 1 4.56 1.57 6.96 1.57 6.24 0 12.6-3.26 16.08-7.88 1.92.84 3.96 1.2 6 1.2 6.72 0 12.96-4.33 15.84-11.15 2.28-5.18 2.4-10.5.36-15.33z" stroke="#000" stroke-opacity="0" stroke-width="1.31" fill="#3176bc"/><path d="M853.85 2222.7h-6.08c-.73-3.32-3.72-5.8-7.35-5.8-4.1 0-7.45 3.38-7.45 7.46 0 4.15 3.36 7.47 7.45 7.47 3.54 0 6.53-2.43 7.35-5.75h6.08c.73 0 1.37.64 1.37 1.4v20.56c1.18.25 2.17.44 3.35.5v-21.05c0-2.63-2.17-4.8-4.72-4.8zm-13.43 6.06c-2.36 0-4.36-1.97-4.36-4.4 0-2.42 2-4.34 4.36-4.34 2.45 0 4.45 1.92 4.45 4.34 0 2.43-2 4.4-4.45 4.4zm37.5-4.53v-7.02c0-2.6-2.1-4.7-4.73-4.7h-10.63c-.82 0-1.45-.65-1.45-1.4v-25.28c-.55.44-1.1.9-1.64 1.4-.63-.2-1.1-.25-1.72-.32v24.2c0 2.6 2.18 4.7 4.8 4.7h10.63c.72 0 1.35.65 1.35 1.4v7.03c-3.26.77-5.8 3.7-5.8 7.28 0 4.1 3.35 7.47 7.53 7.47 4.08 0 7.44-3.38 7.44-7.46 0-3.57-2.45-6.5-5.8-7.27zm-1.64 11.62c-2.45 0-4.45-1.92-4.45-4.34s2-4.4 4.45-4.4c2.36 0 4.36 1.98 4.36 4.4 0 2.43-2 4.35-4.36 4.35zm47.48-18.64c0-4.07-3.36-7.45-7.44-7.45-4.18 0-7.54 3.38-7.54 7.46 0 3.6 2.45 6.52 5.8 7.3v1.4c0 .76-.62 1.4-1.44 1.4H899.7v-24.06c0-2.62-2.1-4.8-4.72-4.8h-7.35c-.73-3.3-3.73-5.8-7.27-5.8-4.17 0-7.53 3.32-7.53 7.47 0 4.16 3.36 7.48 7.53 7.48 3.54 0 6.54-2.43 7.27-5.74h7.35c.73 0 1.36.63 1.36 1.4v45.94c1.1.26 2.18.4 3.36.45v-19.02h13.44c2.63 0 4.8-2.1 4.8-4.7v-1.35c3.28-.76 5.82-3.76 5.82-7.34zm-43.4-12.68c-2.45 0-4.35-1.98-4.35-4.4 0-2.43 1.9-4.35 4.36-4.35 2.36 0 4.36 1.92 4.36 4.34 0 2.44-2 4.42-4.36 4.42zm35.96 17.1c-2.45 0-4.45-1.98-4.45-4.4 0-2.43 2-4.35 4.45-4.35 2.36 0 4.35 1.92 4.35 4.34 0 2.44-2 4.42-4.35 4.42z" stroke="#000" stroke-opacity="0" stroke-width="1.31" fill="#fff"/><use xlink:href="#e" transform="matrix(1,0,0,1,790,2261.3005474360652) translate(43.758 13.5)"/><use xlink:href="#f" transform="matrix(1,0,0,1,790,2261.3005474360652) translate(44.514 31.5)"/><path d="M1073.36 2119.1h-60.12l-30.12 51.94 30.12 51.93h59.88l30-51.93-29.76-51.93zm-32.88 27.22h13.92v14.02h-13.92v-14.02zm0 17.45h13.92v13.92h-13.92v-13.93zm0 17.34h13.92v14.04h-13.92v-14.03zm-17.4-34.78H1037v14.02h-13.92v-14.02zm0 17.45H1037v13.92h-13.92v-13.93zm0 17.34H1037v14.04h-13.92v-14.03zm48.36 21.62h-56.64v-56.7h3.84v52.85h52.8v3.85zm.36-7.58h-13.92v-14.03h13.92v14.04zm0-17.45h-13.92v-13.93h13.92v13.92zm0-17.46h-13.92v-13.92h13.92v13.92z" stroke="#000" stroke-opacity="0" fill="#0078d7"/><use xlink:href="#g" transform="matrix(1,0,0,1,953.1248692988411,2231.9702325658823) translate(22.329000000000008 15)"/><use xlink:href="#h" transform="matrix(1,0,0,1,953.1248692988411,2231.9702325658823) translate(108.22500000000001 15)"/><path d="M667.4 2208.57c-10.93 8.4-22.7 12.36-36.37 12.36-18.12 0-36-8.16-47.76-23.52-20.16-26.27-15.12-63.95 11.16-84.1 10.92-8.4 23.76-12.37 36.48-12.37 18 0 35.9 8.16 47.65 23.52 20.16 26.28 15.12 63.96-11.16 84.12" stroke="#000" stroke-opacity="0" stroke-width="3" fill="#59b4d9"/><path d="M656.36 2171.44c4.36 5.7 12.4 6.73 18.07 2.38.33-.2.54-.4.76-.72 5.87 4.14 9.8 6.83 12.07 8.28.66-1.65 1.2-3.3 1.63-5.07-3.7-2.8-6.74-5.17-10.33-8.07 1.52-4.04 1.08-8.7-1.75-12.43-3.9-5.18-11-6.53-16.65-3.32-7.07-6.42-13.06-12-19.9-18.74 22.08-11.92 37.64-10.15 37.64-10.15-2.6-3.33-5.54-6.23-8.58-8.82-9.36-1.45-23.73-1.35-40.16 7.46-6.1-6.42-11.1-11.9-16.76-18.54-2.94.93-5.34 1.86-7.95 3.2 4.14 6.95 9.8 13.8 16.22 20.62-6.3 4.46-11.32 8.8-16.65 14.5-.77.73-1.42 1.45-2.07 2.18-3.38-.73-6.53-.52-9.9.72-5.34-11.8-4.9-21.23-4.14-26-2.28 2.4-4.45 5.08-6.4 7.77-1.43 5.8-1.86 14.18 2.38 24.23-5.1 6.63-5.1 15.43 0 21.96.44.6.87 1.13 1.3 1.54-2.06 7.25-3.15 13.57-3.47 21.03.55.83.55 1.45 1.1 2.18 2.93 3.72 6.52 6.83 10 9.63-.43-6.63 0-16.37 4.14-27.35 2.94.3 5.55-.1 8.38-1.34 1.53 1.33 3.05 2.78 4.8 4.13 5.76 4.56 10.98 7.87 17.5 11.2-.3 3.1.45 5.9 2.3 8.38 4.03 5.3 11.53 6.22 16.76 2.18 1.1-.83 1.96-1.66 2.72-2.9 9.25 2.07 17.4 2.5 23.5 2.5.88 0 5.23-5.92 7.73-9.54-3.7.83-14.7 2.28-29.6-1.97-.33-1.86-.98-3.3-2.18-4.76-3.7-4.97-10.66-6-15.78-2.7-6.1-3.3-10.88-6.5-16.32-10.76l-3.16-2.7c3.48-5.7 3.8-12.22.76-18.12.65-.72 1.3-1.35 2.06-2.07 5.55-5.18 10.78-9.32 15.67-12.64l-.66-.6.65.6c7.4 6.95 15.34 13.48 22.85 19.38-1.96 4.14-1.63 9.32 1.4 13.26z" stroke="#000" stroke-opacity="0" stroke-width="3" fill="#fff"/><use xlink:href="#i" transform="matrix(1,0,0,1,540.906586189193,2229.93023255814) translate(22.427999999999997 15)"/><use xlink:href="#f" transform="matrix(1,0,0,1,540.906586189193,2229.93023255814) translate(66.6 15)"/><path d="M1460.6 2137.64c-10.9 8.4-22.67 12.36-36.35 12.36-18.12 0-36-8.16-47.76-23.52-20.17-26.28-15.13-63.96 11.15-84.12 10.92-8.4 23.76-12.36 36.48-12.36 18 0 35.88 8.16 47.64 23.52 20.16 26.28 15.12 63.96-11.16 84.12" stroke="#000" stroke-opacity="0" stroke-width="3" fill="#59b4d9"/><path d="M1449.6 2100.5c4.34 5.7 12.4 6.74 18.05 2.4.33-.22.55-.42.77-.73 5.87 4.14 9.8 6.83 12.08 8.28.65-1.65 1.2-3.3 1.63-5.07-3.7-2.8-6.75-5.18-10.34-8.08 1.5-4.04 1.08-8.7-1.75-12.43-3.92-5.18-11-6.53-16.65-3.32-7.08-6.42-13.06-12-19.92-18.74 22.1-11.9 37.66-10.14 37.66-10.14-2.62-3.32-5.55-6.22-8.6-8.8-9.36-1.46-23.73-1.36-40.16 7.45-6.1-6.4-11.1-11.9-16.76-18.53-2.94.93-5.33 1.86-7.94 3.2 4.13 6.95 9.8 13.78 16.2 20.62-6.3 4.45-11.3 8.8-16.64 14.5-.76.72-1.4 1.44-2.07 2.17-3.37-.73-6.53-.52-9.9.72-5.33-11.82-4.9-21.24-4.14-26-2.28 2.38-4.46 5.07-6.42 7.76-1.4 5.8-1.84 14.2 2.4 24.24-5.1 6.63-5.1 15.43 0 21.96.44.62.88 1.14 1.3 1.55-2.05 7.26-3.14 13.58-3.47 21.04.54.83.54 1.45 1.1 2.18 2.93 3.72 6.52 6.83 10 9.63-.43-6.63 0-16.37 4.14-27.35 2.94.3 5.55-.1 8.38-1.34 1.52 1.34 3.04 2.8 4.8 4.14 5.75 4.56 10.98 7.87 17.5 11.2-.32 3.1.44 5.9 2.3 8.38 4.02 5.28 11.53 6.2 16.75 2.17 1.1-.83 1.96-1.66 2.72-2.9 9.25 2.07 17.42 2.5 23.5 2.5.88 0 5.23-5.92 7.74-9.54-3.7.84-14.7 2.3-29.6-1.96-.33-1.86-.98-3.3-2.18-4.76-3.7-4.98-10.67-6-15.78-2.7-6.1-3.3-10.88-6.52-16.33-10.77l-3.15-2.68c3.48-5.7 3.8-12.23.76-18.13.65-.73 1.3-1.36 2.07-2.08 5.55-5.18 10.77-9.32 15.67-12.64-.22-.2-.44-.4-.65-.62l.65.62c7.4 6.94 15.34 13.47 22.85 19.37-1.96 4.14-1.63 9.32 1.42 13.26z" stroke="#000" stroke-opacity="0" stroke-width="3" fill="#fff"/><use xlink:href="#i" transform="matrix(1,0,0,1,1334.130771744067,2159) translate(22.427999999999997 15)"/><use xlink:href="#f" transform="matrix(1,0,0,1,1334.130771744067,2159) translate(66.6 15)"/><path d="M517.85 2023.98h80V2300h-80z" fill="none"/><path d="M517.85 2300c5.52 0 10-4.48 10-10v-118c0-5.53 4.48-10 10-10-5.52 0-10-4.5-10-10v-118.02c0-5.52-4.48-10-10-10" stroke="#000" stroke-width="2" fill="none"/><path d="M723.12 2020h80v280h-80z" fill="none"/><path d="M723.12 2300c5.53 0 10-4.48 10-10v-120c0-5.52 4.48-10 10-10-5.52 0-10-4.48-10-10v-120c0-5.52-4.47-10-10-10" stroke="#000" stroke-width="2" fill="none"/><path d="M1361.6 2269.74h-115.93c-1.34 0-2.55-1.18-2.55-2.53v-56.4h5.2v53.8h110.6v-74.16h-70.3v-5.16h72.97c1.32 0 2.53 1.2 2.53 2.54v79.4c0 1.34-1.2 2.52-2.54 2.52z" stroke="#fff" stroke-opacity="0" fill="#3b48cc"/><path d="M1303.6 2238.48c-.57 0-1.12-.2-1.58-.58l-31.12-25.84 3.33-3.95 29.36 24.48 56.3-46.73 3.33 3.95-57.9 48.1c-.54.37-1.1.58-1.74.58z" stroke="#fff" stroke-opacity="0" fill="#3b48cc"/><path d="M1312.12 2229.45l3.32-3.92 47.76 39.68-3.32 3.94-47.76-39.7z" stroke="#fff" stroke-opacity="0" stroke-width=".64" fill="#3b48cc"/><path d="M1244.07 2265.2l47.75-39.7 3.32 3.94-47.75 39.7-3.33-3.93z" stroke="#fff" stroke-opacity="0" stroke-width=".77" fill="#3b48cc"/><path d="M1261.62 2203.04c2.55-.04 4.68-.44 7.08-1.36v4.44c-2.55 1.23-4.9 1.76-7.74 1.72-3.3.08-6.15-.62-9.02-2.3-2.63-1.57-4.45-3.64-5.7-6.4-1.42-3.35-2.04-6.47-1.96-10.08-.08-4.8.85-8.93 2.98-13.2 1.85-3.82 4.33-6.6 7.9-8.88 3.36-2.15 6.8-3.16 10.83-3.12 3.32-.1 6.23.57 9.17 2.16 2.63 1.45 4.5 3.38 5.84 6.1 1.45 3.13 2.06 6.03 2 9.46.03 3.08-.44 5.72-1.56 8.58-.85 2.33-2.1 4.13-4 5.76-1.58 1.36-3.36 2.02-5.5 2.02-1.1.05-2.1-.22-3.12-.7-.93-.5-1.63-1.14-2.17-2.02-.85.92-1.7 1.53-2.82 2.06-.97.53-1.9.8-3 .84-1.96.1-3.66-.8-4.75-2.38-1.27-2.2-1.78-4.35-1.62-6.86-.04-2.72.38-5.1 1.3-7.7.7-2.15 1.75-3.86 3.38-5.53 1.16-1.24 2.6-1.85 4.26-1.94 1.93.06 3.56.98 4.6 2.56l.55-1.8h4.72l-2.13 15.7c-.04.48-.04.92 0 1.4-.04.53.08 1.02.43 1.46.27.35.66.52 1.08.52 1.12-.13 2.05-.74 2.6-1.75.92-1.42 1.54-2.74 1.9-4.4.5-2 .73-3.7.7-5.77.26-3.6-.75-6.82-3.07-9.68-2.48-2.42-5.5-3.52-8.98-3.3-3.1 0-5.73.88-8.2 2.73-2.6 1.98-4.38 4.27-5.62 7.3-1.43 3.43-2.05 6.55-1.98 10.3-.23 3.9.78 7.3 3.1 10.46 2.2 2.5 5.15 3.78 8.52 3.6zm1.55-9.58c1.04-.05 1.93-.5 2.6-1.28v-.88c-.05-.66-.05-1.2 0-1.85l1.38-10.24c-.7-.52-1.43-.83-2.28-.87-1.24 0-2.25.92-3.1 2.8-.96 2.4-1.35 4.6-1.24 7.18.12 3.44.93 5.16 2.64 5.16z" stroke="#fff" stroke-opacity="0" fill="#3b48cc"/><path d="M1244.48 2186.64h116.58v80.03h-116.58v-80.03z" stroke="#fff" stroke-opacity="0" stroke-width=".87" fill="#fff" fill-opacity="0"/><path d="M1264.77 2166.8c9.27 0 16.8 7.4 16.8 16.5 0 9.08-7.53 16.47-16.8 16.47s-16.8-7.4-16.8-16.48c0-9.1 7.53-16.5 16.8-16.5z" stroke="#fff" stroke-opacity="0" stroke-width=".38" fill="#fff" fill-opacity="0"/><use xlink:href="#j" transform="matrix(1,0,0,1,1213.124869298841,2278.740629755852) translate(64.225 15)"/><path d="M430.16 2278.5l-37.33-37.37-20.55 20.57-3.58-3.6 22.3-22.36c1.05-1 2.6-1 3.65 0l39.1 39.18z" stroke="#fff" stroke-opacity="0" fill="#2a3282"/><path d="M470.24 2257.34l-28.9-28.9-28.24 28.34-3.6-3.57 30.1-30.15c.98-.98 2.6-.98 3.55 0l30.7 30.72zM411.53 2231.55c-6.56.02-11.88-5.3-11.9-11.87-.03-6.57 5.3-11.9 11.85-11.92 6.56-.03 11.88 5.3 11.9 11.87v.05c-.02 6.54-5.32 11.84-11.85 11.87zm0-18.68h-.03c-3.75 0-6.8 3.05-6.8 6.8 0 3.76 3.05 6.8 6.8 6.8 3.76 0 6.8-3.04 6.8-6.8 0-3.75-3.02-6.8-6.77-6.8z" stroke="#fff" stroke-opacity="0" fill="#2a3282"/><path d="M471.18 2287.18H370.5c-1.37 0-2.53-1.16-2.53-2.54v-100.8c0-1.37 1.16-2.54 2.53-2.54h100.68c1.38 0 2.54 1.17 2.54 2.54v100.8c0 1.38-1.16 2.54-2.54 2.54zm-98.14-5.08h95.6v-95.72h-95.6z" stroke="#fff" stroke-opacity="0" fill="#2a3282"/><use xlink:href="#k" transform="matrix(1,0,0,1,337.9665038694067,2296.180712075638) translate(53.759 15)"/><path d="M1169.23 2020h80v280h-80z" fill="none"/><path d="M1169.23 2300c5.53 0 10-4.48 10-10v-120c0-5.52 4.48-10 10-10-5.52 0-10-4.48-10-10v-120c0-5.52-4.47-10-10-10" stroke="#000" stroke-width="2" fill="none"/><path d="M860 2323.6h249.8v67.17H860z" fill="none"/><g><use xlink:href="#l" transform="matrix(1,0,0,1,860,2323.590356037819) translate(55.14 44)"/></g><path d="M1241.63 2327.18h240v60h-240z" fill="none"/><g><use xlink:href="#m" transform="matrix(1,0,0,1,1241.6327331708496,2327.180712075638) translate(45.8 40)"/></g></g><defs><path d="M57 0v-720h132V0H57" id="n"/><path d="M505-580c76 0 138 62 138 138V0H512v-442c0-4-3-7-7-7H192c-4 0-7 3-7 7V0H54v-580h451" id="o"/><path d="M505-580c76 0 138 62 138 138v304C643-62 581 0 505 0H185v230H54v-810h451zm7 442v-304c0-4-3-7-7-7H192c-4 0-7 3-7 7v304c0 4 3 7 7 7h313c4 0 7-3 7-7" id="p"/><path d="M511-580h131v442C642-62 580 0 504 0H191C114 0 53-62 53-138v-442h131v442c0 4 3 7 7 7h313c4 0 7-3 7-7v-442" id="q"/><path d="M410-449H184v311c0 4 3 7 7 7h219V0H191C114 0 53-62 53-138v-632h131v190h226v131" id="r"/><g id="a"><use transform="matrix(0.040222222222222194,0,0,0.040222222222222194,0,0)" xlink:href="#n"/><use transform="matrix(0.040222222222222194,0,0,0.040222222222222194,8.848888888888883,0)" xlink:href="#o"/><use transform="matrix(0.040222222222222194,0,0,0.040222222222222194,35.67711111111109,0)" xlink:href="#p"/><use transform="matrix(0.040222222222222194,0,0,0.040222222222222194,62.384666666666625,0)" xlink:href="#q"/><use transform="matrix(0.040222222222222194,0,0,0.040222222222222194,89.41399999999993,0)" xlink:href="#r"/></g><path d="M56-719h590c72 0 130 59 130 130v202c0 71-58 130-130 130-160-1-325 3-482-2V0H56v-719zm612 332v-202c0-12-10-22-22-22H186c-12 0-22 10-22 22v202c0 12 10 22 22 22h460c12 0 22-10 22-22" id="s"/><path d="M58-720h590c72 0 130 58 130 130v460C778-58 720 0 648 0H58v-720zm612 590v-460c0-12-10-22-22-22H188c-12 0-22 10-22 22v460c0 12 10 22 22 22h460c12 0 22-10 22-22" id="t"/><path d="M58-720h660v108H166v198h444v108H166V0H58v-720" id="u"/><g id="b"><use transform="matrix(0.018,0,0,0.018,0,0)" xlink:href="#s"/><use transform="matrix(0.018,0,0,0.018,14.238,0)" xlink:href="#t"/><use transform="matrix(0.018,0,0,0.018,29.250000000000004,0)" xlink:href="#u"/></g><path d="M736-387c63 46 43 157 43 257C779-58 721 0 649 0H59v-720h560c72 0 130 58 130 130 0 70 11 152-13 203zM619-612H189c-12 0-22 10-22 22v147c0 12 10 22 22 22h430c12 0 22-10 22-22v-147c0-12-10-22-22-22zm52 482v-161c0-12-10-22-22-22H189c-12 0-22 10-22 22v161c0 12 10 22 22 22h460c12 0 22-10 22-22" id="v"/><path d="M52-770h108v640c0 12 10 22 22 22h108V0H182C110 0 52-58 52-130v-640" id="w"/><path d="M181-580h330c72 0 130 58 130 130v320C641-58 583 0 511 0H181C109 0 51-58 51-130v-320c0-72 58-130 130-130zm330 108H181c-12 0-22 10-22 22v320c0 12 10 22 22 22h330c12 0 22-10 22-22v-320c0-12-10-22-22-22" id="x"/><path d="M514-580c72 0 130 58 130 130v320C644-58 586 0 514 0H54v-770h108v190h352zm22 450v-320c0-12-10-22-22-22H184c-12 0-22 10-22 22v320c0 12 10 22 22 22h330c12 0 22-10 22-22" id="y"/><g id="c"><use transform="matrix(0.018,0,0,0.018,0,0)" xlink:href="#v"/><use transform="matrix(0.018,0,0,0.018,14.975999999999999,0)" xlink:href="#w"/><use transform="matrix(0.018,0,0,0.018,20.412,0)" xlink:href="#x"/><use transform="matrix(0.018,0,0,0.018,32.867999999999995,0)" xlink:href="#y"/></g><path d="M641-720c86 3 143 71 130 172H663c-1-28 7-64-22-64H181c-12 0-22 10-22 22v154c0 12 10 22 22 22h460c72 0 130 58 130 130v154C771-58 713 0 641 0H181C95-3 38-71 51-172h108c1 28-7 64 22 64h460c12 0 22-10 22-22v-154c0-12-10-22-22-22H181c-72 0-130-58-130-130v-154c0-72 58-130 130-130h460" id="z"/><path d="M399-472H161v342c0 12 10 22 22 22h216V0H183C111 0 53-58 53-130v-640h108v190h238v108" id="A"/><path d="M182-580h324v108H182c-12 0-22 10-22 22V0H52v-450c0-72 58-130 130-130" id="B"/><path d="M512-580c72 0 130 58 130 130V0H182C110 0 52-58 52-130v-214h482v-106c0-12-10-22-22-22H52v-108h460zm22 472v-128H160v106c0 12 10 22 22 22h352" id="C"/><path d="M631-450v550c0 72-58 130-130 130H143V122h358c12 0 22-10 22-22V0H171C99 0 41-58 41-130v-320c0-72 58-130 130-130h330c72 0 130 58 130 130zM171-108h330c12 0 22-10 22-22v-320c0-12-10-22-22-22H171c-12 0-22 10-22 22v320c0 12 10 22 22 22" id="D"/><path d="M511-580c72 0 130 58 130 130v214H159v106c0 12 10 22 22 22h460V0H181C109 0 51-58 51-130v-320c0-72 58-130 130-130h330zM159-344h374v-106c0-12-10-22-22-22H181c-12 0-22 10-22 22v106" id="E"/><g id="d"><use transform="matrix(0.018,0,0,0.018,0,0)" xlink:href="#z"/><use transform="matrix(0.018,0,0,0.018,14.796,0)" xlink:href="#A"/><use transform="matrix(0.018,0,0,0.018,22.176,0)" xlink:href="#x"/><use transform="matrix(0.018,0,0,0.018,34.272,0)" xlink:href="#B"/><use transform="matrix(0.018,0,0,0.018,43.578,0)" xlink:href="#C"/><use transform="matrix(0.018,0,0,0.018,56.07000000000001,0)" xlink:href="#D"/><use transform="matrix(0.018,0,0,0.018,68.22,0)" xlink:href="#E"/></g><path d="M774-612H186c-12 0-22 10-22 22v460c0 12 10 22 22 22h588V0H186C114 0 56-58 56-130v-460c0-72 58-130 130-130h588v108" id="F"/><path d="M514-580c72 0 130 58 130 130V0H536v-450c0-12-10-22-22-22H184c-12 0-22 10-22 22V0H54v-580h460" id="G"/><path d="M52 0v-580h108V0H52zm0-770h108v108H52v-108" id="H"/><path d="M645-580h124L449 0H341L21-580h125l249 458" id="I"/><g id="e"><use transform="matrix(0.018,0,0,0.018,0,0)" xlink:href="#F"/><use transform="matrix(0.018,0,0,0.018,14.796,0)" xlink:href="#x"/><use transform="matrix(0.018,0,0,0.018,27.252,0)" xlink:href="#D"/><use transform="matrix(0.018,0,0,0.018,39.546,0)" xlink:href="#G"/><use transform="matrix(0.018,0,0,0.018,52.074,0)" xlink:href="#H"/><use transform="matrix(0.018,0,0,0.018,55.818,0)" xlink:href="#A"/><use transform="matrix(0.018,0,0,0.018,63.19799999999999,0)" xlink:href="#H"/><use transform="matrix(0.018,0,0,0.018,66.942,0)" xlink:href="#I"/><use transform="matrix(0.018,0,0,0.018,80.02799999999999,0)" xlink:href="#E"/></g><path d="M181-108h460V0H181C109 0 51-58 51-130v-320c0-72 58-130 130-130h458v108H181c-12 0-22 10-22 22v320c0 12 10 22 22 22" id="J"/><path d="M508-580c79 2 138 64 130 152H530c2-23-1-44-22-44H178c-38 4-22 69-22 106 0 12 10 22 22 22h330c72 0 130 58 130 130v84C638-58 580 0 508 0H178C99-2 40-64 48-152h108c-2 23 1 44 22 44h330c38-4 22-69 22-106 0-12-10-22-22-22H178c-72 0-130-58-130-130v-84c0-72 58-130 130-130h330" id="K"/><g id="f"><use transform="matrix(0.018,0,0,0.018,0,0)" xlink:href="#z"/><use transform="matrix(0.018,0,0,0.018,14.796,0)" xlink:href="#E"/><use transform="matrix(0.018,0,0,0.018,26.892,0)" xlink:href="#B"/><use transform="matrix(0.018,0,0,0.018,36.108,0)" xlink:href="#I"/><use transform="matrix(0.018,0,0,0.018,50.184,0)" xlink:href="#H"/><use transform="matrix(0.018,0,0,0.018,53.928,0)" xlink:href="#J"/><use transform="matrix(0.018,0,0,0.018,66.16799999999999,0)" xlink:href="#E"/><use transform="matrix(0.018,0,0,0.018,78.624,0)" xlink:href="#K"/></g><g id="g"><use transform="matrix(0.018,0,0,0.018,0,0)" xlink:href="#z"/><use transform="matrix(0.018,0,0,0.018,14.796,0)" xlink:href="#A"/><use transform="matrix(0.018,0,0,0.018,22.176,0)" xlink:href="#x"/><use transform="matrix(0.018,0,0,0.018,34.272,0)" xlink:href="#B"/><use transform="matrix(0.018,0,0,0.018,43.578,0)" xlink:href="#C"/><use transform="matrix(0.018,0,0,0.018,56.07000000000001,0)" xlink:href="#D"/><use transform="matrix(0.018,0,0,0.018,68.22,0)" xlink:href="#E"/></g><g id="h"><use transform="matrix(0.018,0,0,0.018,0,0)" xlink:href="#A"/><use transform="matrix(0.018,0,0,0.018,7.379999999999999,0)" xlink:href="#C"/><use transform="matrix(0.018,0,0,0.018,19.548,0)" xlink:href="#y"/><use transform="matrix(0.018,0,0,0.018,31.553999999999995,0)" xlink:href="#w"/><use transform="matrix(0.018,0,0,0.018,36.989999999999995,0)" xlink:href="#E"/></g><path d="M188-720h460c72 0 130 58 130 130V0H670v-252H166V0H58v-590c0-72 58-130 130-130zm-22 360h504v-230c0-12-10-22-22-22H188c-12 0-22 10-22 22v230" id="L"/><path d="M514-580c72 0 130 58 130 130v320C644-58 586 0 514 0H162v230H54v-810h460zm22 450v-320c0-12-10-22-22-22H184c-12 0-22 10-22 22v320c0 12 10 22 22 22h330c12 0 22-10 22-22" id="M"/><g id="i"><use transform="matrix(0.018,0,0,0.018,0,0)" xlink:href="#L"/><use transform="matrix(0.018,0,0,0.018,15.047999999999998,0)" xlink:href="#M"/><use transform="matrix(0.018,0,0,0.018,26.999999999999996,0)" xlink:href="#M"/></g><path d="M720-720v132H191v162h426v132H191v162h529V0H58v-720h662" id="N"/><path d="M773-580c76 0 138 62 138 138V0H781v-442c0-4-3-7-8-7H555c-4 0-6 3-6 7V0H417v-442c0-4-3-7-6-7H192c-4 0-7 3-7 7V0H54v-580h719" id="O"/><path d="M503-580c76 0 138 62 138 138V0H190C114 0 52-62 52-138v-218h458v-86c0-4-3-7-7-7H52v-131h451zm7 449v-93H183v86c0 4 3 7 7 7h320" id="P"/><path d="M52 0v-580h131V0H52zm0-770h131v132H52v-132" id="Q"/><path d="M52-770h132v632c0 4 2 7 6 7h117V0H190C114 0 52-62 52-138v-632" id="R"/><g id="j"><use transform="matrix(0.018,0,0,0.018,0,0)" xlink:href="#N"/><use transform="matrix(0.018,0,0,0.018,13.787999999999998,0)" xlink:href="#O"/><use transform="matrix(0.018,0,0,0.018,30.671999999999997,0)" xlink:href="#P"/><use transform="matrix(0.018,0,0,0.018,43.163999999999994,0)" xlink:href="#Q"/><use transform="matrix(0.018,0,0,0.018,47.358,0)" xlink:href="#R"/></g><path d="M57 0v-720h108V0H57" id="S"/><path d="M795-580c72 0 130 58 130 130V0H818v-450c0-12-10-22-23-22H566c-12 0-22 10-22 22V0H436v-450c0-12-10-22-22-22H184c-12 0-22 10-22 22V0H54v-580h741" id="T"/><g id="k"><use transform="matrix(0.018,0,0,0.018,0,0)" xlink:href="#S"/><use transform="matrix(0.018,0,0,0.018,3.9599999999999995,0)" xlink:href="#T"/><use transform="matrix(0.018,0,0,0.018,21.383999999999997,0)" xlink:href="#C"/><use transform="matrix(0.018,0,0,0.018,33.876,0)" xlink:href="#D"/><use transform="matrix(0.018,0,0,0.018,46.025999999999996,0)" xlink:href="#E"/></g><path d="M58-720h580c77 0 140 62 140 139v442C778-62 715 0 638 0H58v-720zm587 581v-442c0-4-3-7-7-7H197c-4 0-7 3-7 7v442c0 4 3 7 7 7h441c4 0 7-3 7-7" id="U"/><path d="M630 92c0 76-61 138-137 138H138V98h355c3 0 6-2 6-6V0H179C103 0 41-62 41-138v-304c0-76 62-138 138-138h314c76 0 137 62 137 138V92zM179-131h314c3 0 6-3 6-7v-304c0-4-3-7-6-7H179c-4 0-7 3-7 7v304c0 4 3 7 7 7" id="V"/><path d="M502-580c76 0 138 62 138 138v218H182v86c0 4 3 7 7 7h451V0H189C113 0 51-62 51-138v-304c0-76 62-138 138-138h313zM182-356h327v-86c0-4-3-7-7-7H189c-4 0-7 3-7 7v86" id="W"/><path d="M499-580c85 2 147 69 138 163H506c-2-11 5-32-7-32H186c-4 0-7 3-7 7v80c0 4 3 6 7 6h313c77 0 138 62 138 138v80C637-62 576 0 499 0H186C102-2 39-69 48-163h131c2 11-5 32 7 32h313c4 0 7-3 7-7v-80c0-4-3-6-7-6H186c-76 0-138-62-138-138v-80c0-76 62-138 138-138h313" id="X"/><g id="l"><use transform="matrix(0.04,0,0,0.04,0,0)" xlink:href="#U"/><use transform="matrix(0.04,0,0,0.04,32.2,0)" xlink:href="#Q"/><use transform="matrix(0.04,0,0,0.04,41.52,0)" xlink:href="#V"/><use transform="matrix(0.04,0,0,0.04,67.92,0)" xlink:href="#W"/><use transform="matrix(0.04,0,0,0.04,94.80000000000003,0)" xlink:href="#X"/><use transform="matrix(0.04,0,0,0.04,122.24000000000001,0)" xlink:href="#r"/></g><path d="M193-720h442c76 0 139 62 139 139v442C774-62 711 0 635 0H193C116 0 54-62 54-139v-442c0-77 62-139 139-139zm0 588h442c3 0 6-3 6-7v-442c0-4-3-7-6-7H193c-4 0-7 3-7 7v442c0 4 3 7 7 7" id="Y"/><g id="m"><use transform="matrix(0.04,0,0,0.04,0,0)" xlink:href="#Y"/><use transform="matrix(0.04,0,0,0.04,33.12,0)" xlink:href="#q"/><use transform="matrix(0.04,0,0,0.04,60,0)" xlink:href="#r"/><use transform="matrix(0.04,0,0,0.04,77.48,0)" xlink:href="#p"/><use transform="matrix(0.04,0,0,0.04,104.04,0)" xlink:href="#q"/><use transform="matrix(0.04,0,0,0.04,130.92000000000002,0)" xlink:href="#r"/></g></defs></g></svg>